# xmcd
#
# Track frame offsets:
# 150
# 3290
# 5824
# 8738
# 13490
# 16781
# 20793
# 25178
# 29551
# 32295
# 39017
# 45917
# 53852
# 59087
# 61949
# 67248
# 75058
# 80446
# 82988
# 89226
# 97650
# 100050
# 104958
# 107845
# 110233
# 112880
# 120918
# 123997
# 132826
# 137632
# 140519
# 146085
# 151033
# 156016
# 160754
# 165483
# 172143
# 176913
# 182564
# 189730
# 193658
# 200757
# 204011
# 207902
# 226083
# 232203
# 236642
# 245279
# 250967
# 254657
# 262565
# 271290
# 278496
# 286669
# 290767
# 296711
#
# Disc length: 4052 seconds
#
#
# Revision: 0
# Processed by: cddbd v1.5.2PL0 Copyright (c) Steve Scherf et al.
# Submitted via: FreeRIP 2.951 
#
DISCID=0c0fd238
DTITLE=Wiedemann/Ignatzek - JazzKlavierBlues
DYEAR=1997
DGENRE=JazzBluesLehrbuch
TTITLE0=Jazz-Blues binär ternär
TTITLE1=Jazz-Blues Off-Beat
TTITLE2=Jazz-Blues "Blues Nr. 1"
TTITLE3=Jazz-Blues "Blues Nr. 1" mit Antizipation
TTITLE4=Jazz-Blues "First Step"
TTITLE5="Unisono-Blues"
TTITLE6=Improv mit Fill-ins
TTITLE7="Basic Blues"
TTITLE8="Happy hour"
TTITLE9=Grundtonlose Zweiton-Voicings 1
TTITLE10=Grundtonlose Zweiton-Voicings 2
TTITLE11="Blues Nr.3" a
TTITLE12="Blues Nr.3" b
TTITLE13=Rhythmusmotive
TTITLE14=Frage- und Antwortmotive 1
TTITLE15=Frage- und Antwortmotive 2
TTITLE16="Going somewhere", Walking Bass
TTITLE17="Blues Nr. 4"
TTITLE18="Blues Nr. 4" b
TTITLE19="Blues Nr. 4" c
TTITLE20=Grundtonlose Dreiton-Voicings
TTITLE21="Take-Off Blues"
TTITLE22="Livin' Fourth"
TTITLE23="Blues Nr. 5" a
TTITLE24="Blues Nr. 5" b
TTITLE25=Schleiftöne
TTITLE26="Slidin' Groove"
TTITLE27=Ausschmückungsakkorde
TTITLE28="Blues Nr. 5"
TTITLE29="Blues Nr. 6"
TTITLE30="Blues Nr. 6 b"
TTITLE31="Going For It"
TTITLE32="Blues Nr. 7" a
TTITLE33="Blues Nr. 7" b
TTITLE34="Mixo-Blues" a
TTITLE35="Mixo-Blues" b
TTITLE36=Übeschleifen D7 - Gm7
TTITLE37="Basic Blues 2" a
TTITLE38="Basic Blues 2" b
TTITLE39=Übeschleifen B07 - F7
TTITLE40="Advanced Blues"
TTITLE41=Übeschleifen B7 - Bb7
TTITLE42=Übeschleifen Turnaround
TTITLE43="Advanced Blues 2"
TTITLE44="Au Privave"
TTITLE45=Übeschleifen Em7 - A7 - Ebm7 - Ab7 - Dm7
TTITLE46="Bebop-Blues"
TTITLE47="Inner Moments" moll
TTITLE48="Mr. P.C." a
TTITLE49="Mr. P.C." b
TTITLE50="Swingin' Walk"
TTITLE51="All my Blues"
TTITLE52="Keith's Backwater Blues"
TTITLE53="Backwater Stridin"
TTITLE54="Ray's Tune"
TTITLE55="St. Infirmary Blues"
EXTD=
EXTT0=
EXTT1=
EXTT2=
EXTT3=
EXTT4=
EXTT5=
EXTT6=
EXTT7=
EXTT8=
EXTT9=
EXTT10=
EXTT11=
EXTT12=
EXTT13=
EXTT14=
EXTT15=
EXTT16=
EXTT17=
EXTT18=
EXTT19=
EXTT20=
EXTT21=
EXTT22=
EXTT23=
EXTT24=
EXTT25=
EXTT26=
EXTT27=
EXTT28=
EXTT29=
EXTT30=
EXTT31=
EXTT32=
EXTT33=
EXTT34=
EXTT35=
EXTT36=
EXTT37=
EXTT38=
EXTT39=
EXTT40=
EXTT41=
EXTT42=
EXTT43=
EXTT44=
EXTT45=
EXTT46=
EXTT47=
EXTT48=
EXTT49=
EXTT50=
EXTT51=
EXTT52=
EXTT53=
EXTT54=
EXTT55=
PLAYORDER=
